# xmcd
#
# Track frame offsets:
#	150
#	13426
#	27053
#	39356
#	53463
#	66553
#	80568
#	92833
#	105961
#	120436
#	133683
#	147636
#	159671
#	174696
#	186851
#	201216
#	213711
#	226411
#	240842
#	253646
#	265101
#	277063
#
# Disc length: 3872 seconds
#
# Revision: 1
# Processed by: cddbd v1.5.1PL0 Copyright (c) Steve Scherf et al.
# Submitted via: EasyCDDAExtractor 6.5.9.5
#
DISCID=3d0f1e16
DTITLE=Hank Snow - We'll Never Say Goodbye
DYEAR=1900
DGENRE=Country
TTITLE0=My San Antonio Mama [11/37]
TTITLE1=The Hobo's Last Ride [11/37]
TTITLE2=Lonesome Blue Yodel [10/36]
TTITLE3=The Blue Velvet Band [11/37]
TTITLE4=Blue For Hawaii [11/37]
TTITLE5=Was There Ever A Pal Like You [11/37]
TTITLE6=My Little Swiss Maiden [11/37]
TTITLE7=We Met In The Hills Of Old Wyoming [11/37]
TTITLE8=Someday You'll Care [2/39]
TTITLE9=The Texas Cowboy [2/39]
TTITLE10=Bluer Than Blue [2/39]
TTITLE11=I'll Ride Back To Lonesome Valley [2/39]
TTITLE12=Answer To Blue Velvet Band [2/41]
TTITLE13=Wandering On [2/41]
TTITLE14=The Broken Wedding Ring [2/41]
TTITLE15=Polka Dot Blues [1/42]
TTITLE16=Goodnight Little Buckaroo [5/43]
TTITLE17=The Galveston Rose [1/42]
TTITLE18=Dream Tide [5/43]
TTITLE19=I'm Sending You Red Roses [5/43]
TTITLE20=The Rainbow's End [5/42]
TTITLE21=We'll Never Say Goodbye [5/43]
EXTD=
EXTT0=
EXTT1=
EXTT2=
EXTT3=
EXTT4=
EXTT5=
EXTT6=
EXTT7=
EXTT8=
EXTT9=
EXTT10=
EXTT11=
EXTT12=
EXTT13=
EXTT14=
EXTT15=
EXTT16=
EXTT17=
EXTT18=
EXTT19=
EXTT20=
EXTT21=
PLAYORDER=
